<svg width="1373" height="24" viewBox="0 0 1373 24" fill="none" xmlns="http://www.w3.org/2000/svg">
<path d="M3.43323e-05 7.97652C-0.0129319 12.3948 3.55826 15.987 7.97652 16C12.3948 16.0129 15.987 12.4417 16 8.02348C16.0129 3.60522 12.4417 0.0130006 8.02348 3.43323e-05C3.60522 -0.0129319 0.0130006 3.55826 3.43323e-05 7.97652ZM1372.06 13.0638C1372.65 12.4797 1372.65 11.53 1372.06 10.9425L1362.55 1.36854C1361.96 0.781039 1361.01 0.778252 1360.42 1.36232C1359.84 1.94638 1359.83 2.89613 1360.42 3.48363L1368.88 11.9938L1360.37 20.4541C1359.78 21.0382 1359.78 21.9879 1360.36 22.5754C1360.95 23.1629 1361.9 23.1657 1362.48 22.5817L1372.06 13.0638ZM7.9956 9.49999L1371 13.5L1371 10.5L8.0044 6.50001L7.9956 9.49999Z" fill="#621122"/>
</svg>
