<svg width="329" height="72" viewBox="0 0 329 72" fill="none" xmlns="http://www.w3.org/2000/svg">
<path d="M290.975 38.0952V27.119L293.719 26.5749L300.272 4.78809H318.628L325.228 26.5749L327.949 27.119V38.0952H315.293L314.11 32.4888H304.813L303.631 38.0952H290.975ZM306.256 25.0137H312.667L309.45 11.9321L306.256 25.0137Z" fill="white"/>
<path d="M264.221 38.0952V28.6566L267.059 28.1125V13.588C266.286 13.588 265.506 13.7141 264.717 13.9665C263.945 14.2188 263.298 14.5894 262.778 15.0783C262.257 15.5672 261.997 16.1743 261.997 16.8998H258.046V4.78809H290.313V16.8998H286.362C286.362 16.1743 286.094 15.5672 285.558 15.0783C285.037 14.5894 284.391 14.2188 283.618 13.9665C282.845 13.7141 282.073 13.588 281.3 13.588V28.1125L284.139 28.6566V38.0952H264.221Z" fill="white"/>
<path d="M220.339 38.0952V27.119L223.083 26.5749L229.636 4.78809H247.993L254.593 26.5749L257.313 27.119V38.0952H244.657L243.474 32.4888H234.178L232.995 38.0952H220.339ZM235.621 25.0137H242.031L238.814 11.9321L235.621 25.0137Z" fill="white"/>
<path d="M190.675 38.0952V28.6566L193.514 28.1125V14.6525L190.675 14.1084V4.78809H210.593V14.1084L207.731 14.6525V29.0115C209.119 29.0115 210.309 28.696 211.303 28.0652C212.312 27.4344 213.14 26.7405 213.787 25.9835H217.737V38.0952H190.675Z" fill="white"/>
<path d="M317.469 67.1636V62.0303L319.338 61.7347V54.4251L317.469 54.1294V48.9961H328.777V54.1294L326.908 54.4251V61.7347L328.777 62.0303V67.1636H317.469Z" fill="white"/>
<path d="M305.026 67.1636V62.0303L306.895 61.7347V54.4251L305.026 54.1294V48.9961H316.334V54.1294L314.465 54.4251V61.7347L316.334 62.0303V67.1636H305.026Z" fill="white"/>
<path d="M283.547 67.1636V62.0303L285.416 61.7347V54.4251L283.547 54.1294V48.9961H294.204C295.505 48.9961 296.723 49.0552 297.859 49.1735C298.994 49.2839 299.988 49.5283 300.839 49.9068C301.699 50.2774 302.369 50.8452 302.85 51.61C303.331 52.367 303.572 53.3921 303.572 54.6853C303.572 55.6394 303.418 56.42 303.11 57.0272C302.811 57.6265 302.389 58.1114 301.845 58.482C301.309 58.8526 300.686 59.1798 299.976 59.4637C300.583 60.4415 301.206 61.3404 301.845 62.1605C302.483 62.9726 303.059 63.6508 303.572 64.1948V67.1636H296.049C294.835 65.0267 293.952 62.8622 293.4 60.6701H292.986V67.1636H283.547ZM292.986 57.1809C293.593 57.1809 294.121 57.1376 294.571 57.0508C295.028 56.9562 295.383 56.763 295.635 56.4713C295.887 56.1716 296.014 55.7182 296.014 55.1111C296.014 54.5039 295.887 54.0545 295.635 53.7627C295.383 53.4631 295.028 53.2659 294.571 53.1713C294.121 53.0688 293.593 53.0176 292.986 53.0176V57.1809Z" fill="white"/>
<path d="M271.66 67.3771C269.476 67.3771 267.591 67.042 266.006 66.3717C264.421 65.6936 263.203 64.6527 262.352 63.2492C261.5 61.8456 261.074 60.0517 261.074 57.8675C261.074 55.7622 261.516 54.0353 262.399 52.6869C263.29 51.3386 264.532 50.3411 266.125 49.6945C267.718 49.0479 269.563 48.7246 271.66 48.7246C273.765 48.7246 275.615 49.0479 277.207 49.6945C278.8 50.3411 280.042 51.3386 280.933 52.6869C281.824 54.0353 282.27 55.7622 282.27 57.8675C282.27 60.0359 281.836 61.8259 280.969 63.2373C280.101 64.6409 278.871 65.6818 277.278 66.3599C275.693 67.038 273.821 67.3771 271.66 67.3771ZM271.66 61.6642C272.827 61.6642 273.624 61.3173 274.049 60.6234C274.483 59.9295 274.7 59.0109 274.7 57.8675C274.7 56.7163 274.483 55.8055 274.049 55.1353C273.616 54.465 272.819 54.1299 271.66 54.1299C270.501 54.1299 269.709 54.465 269.283 55.1353C268.857 55.8055 268.644 56.7163 268.644 57.8675C268.644 59.0109 268.853 59.9295 269.271 60.6234C269.697 61.3173 270.493 61.6642 271.66 61.6642Z" fill="white"/>
<path d="M245.367 67.1636V62.0303L247.236 61.7347V53.538C246.613 53.538 246.1 53.7036 245.698 54.0347C245.296 54.358 244.957 54.6971 244.681 55.0519H242.694V48.9961H259.347V55.0519H257.36C257.092 54.6971 256.753 54.358 256.343 54.0347C255.941 53.7036 255.428 53.538 254.806 53.538V61.7347L256.674 62.0303V67.1636H245.367Z" fill="white"/>
<path d="M232.995 67.3773C231.528 67.3773 230.172 67.2827 228.926 67.0934C227.688 66.8963 226.553 66.5296 225.52 65.9934V61.3214H229.08C229.411 61.7788 229.817 62.1691 230.298 62.4924C230.787 62.8157 231.375 62.9773 232.061 62.9773C232.613 62.9773 233.003 62.8315 233.232 62.5397C233.46 62.2401 233.575 61.8024 233.575 61.2268C232.51 61.1322 231.485 60.9666 230.499 60.7301C229.522 60.4935 228.646 60.1466 227.874 59.6892C227.101 59.224 226.49 58.6089 226.04 57.8441C225.591 57.0713 225.366 56.1054 225.366 54.9463C225.366 53.3929 225.709 52.1707 226.395 51.2796C227.089 50.3886 228.039 49.7538 229.246 49.3754C230.46 48.9969 231.844 48.8076 233.397 48.8076C234.935 48.8076 236.295 48.9259 237.478 49.1625C238.661 49.399 239.753 49.7499 240.754 50.2151V54.828H237.194C236.878 54.3785 236.488 53.9921 236.023 53.6689C235.558 53.3377 234.994 53.1721 234.332 53.1721C233.78 53.1721 233.381 53.3416 233.137 53.6807C232.893 54.0119 232.77 54.4692 232.77 55.0527C233.977 55.0921 235.089 55.2183 236.106 55.4312C237.131 55.6441 238.018 55.991 238.767 56.472C239.524 56.9452 240.107 57.5878 240.518 58.4C240.935 59.2043 241.144 60.2254 241.144 61.4634C241.144 62.591 240.935 63.5372 240.518 64.3021C240.1 65.059 239.52 65.6623 238.779 66.1117C238.038 66.5612 237.174 66.8845 236.189 67.0816C235.203 67.2787 234.138 67.3773 232.995 67.3773Z" fill="white"/>
<path d="M212.817 67.1636V62.0303L214.686 61.7347V54.4251L212.817 54.1294V48.9961H224.124V54.1294L222.255 54.4251V61.7347L224.124 62.0303V67.1636H212.817Z" fill="white"/>
<path d="M186.382 67.1636V62.0303L188.227 61.7347V54.4487L186.382 54.153V48.9961H197.547V54.153L195.797 54.4487V56.6842H201.852V54.4487L200.102 54.153V48.9961H211.267V54.153L209.422 54.4487V61.7347L211.267 62.0303V67.1636H200.102V62.0303L201.852 61.7347V59.3573H195.797V61.7347L197.547 62.0303V67.1636H186.382Z" fill="white"/>
<path d="M140.141 71.3738C133.908 71.3738 128.26 70.8944 123.196 69.9355C118.162 68.9467 113.503 67.5684 109.218 65.8005V47.5526H122.747C124.155 49.2905 125.848 50.7737 127.826 52.0022C129.803 53.2307 132.185 53.845 134.972 53.845C137.249 53.845 139.272 53.3206 141.04 52.2719C142.837 51.2231 143.736 49.6051 143.736 47.4177C143.736 45.8296 143.197 44.5712 142.118 43.6423C141.07 42.7134 139.736 42.249 138.118 42.249H126.477V28.945H138.118C139.736 28.945 141.07 28.4806 142.118 27.5517C143.197 26.5929 143.736 25.3344 143.736 23.7763C143.736 21.5889 142.837 19.9709 141.04 18.9221C139.272 17.8734 137.249 17.349 134.972 17.349C132.185 17.349 129.803 17.9633 127.826 19.1918C125.848 20.3904 124.155 21.8736 122.747 23.6414H109.218V5.66316C113.503 3.89529 118.162 2.51696 123.196 1.52815C128.23 0.509385 133.878 0 140.141 0C147.302 0 153.564 1.18357 158.928 3.55071C164.321 5.88789 168.187 9.36369 170.524 13.9781C171.842 16.6749 172.502 19.3866 172.502 22.1133C172.502 25.5891 171.737 28.4806 170.209 30.7878C168.681 33.0651 166.674 34.6681 164.187 35.597C166.584 36.6158 168.561 38.2488 170.119 40.4961C171.708 42.7134 172.502 45.5749 172.502 49.0807C172.502 52.8861 171.633 56.1372 169.895 58.8339C168.157 61.5007 165.91 63.703 163.153 65.4409C160.396 67.1489 157.475 68.4823 154.388 69.4411C150.343 70.7296 145.594 71.3738 140.141 71.3738Z" fill="white"/>
<path d="M45.575 70.0703V46.9233C47.6125 46.2042 49.9047 45.4251 52.4516 44.5861C55.0285 43.7172 57.6204 42.7583 60.2273 41.7096C62.8341 40.6609 65.2312 39.4623 67.4186 38.114C69.6059 36.7656 71.3738 35.2224 72.7222 33.4845C74.0705 31.7466 74.7447 29.769 74.7447 27.5517C74.7447 25.1846 74.0705 23.3418 72.7222 22.0234C71.3738 20.705 69.531 20.0458 67.1938 20.0458C65.2762 20.0458 63.6281 20.72 62.2498 22.0683C60.9014 23.4167 59.8527 24.84 59.1036 26.3382H45.575V5.66316C48.9309 3.89529 52.6614 2.51696 56.7664 1.52815C60.8715 0.509385 65.5608 0 70.8344 0C75.2391 0 79.4041 0.449457 83.3293 1.34837C87.2846 2.21732 90.7753 3.59566 93.8017 5.48338C96.828 7.3711 99.1952 9.84311 100.903 12.8994C102.641 15.9557 103.51 19.6712 103.51 24.046C103.51 27.7615 102.776 31.0874 101.308 34.0239C99.8694 36.9603 97.9067 39.5372 95.4197 41.7546C92.9627 43.9419 90.1911 45.7847 87.1048 47.2829C84.0185 48.7811 80.8423 49.9497 77.5763 50.7886H103.105V70.0703H45.575Z" fill="white"/>
<path d="M0 70.0698V52.1365L5.75305 51.0128V24.0454H0V4.53897L34.5183 1.0332V51.0128L40.2714 52.1365V70.0698H0Z" fill="white"/>
</svg>
